<?xml version="1.0" encoding="UTF-8"?>
<!DOCTYPE svg PUBLIC "-//W3C//DTD SVG 1.0//EN" "http://www.w3.org/TR/2001/REC-SVG-20010904/DTD/svg10.dtd">
<!-- Creator: CorelDRAW 2020 (64 Bit) -->
<svg xmlns="http://www.w3.org/2000/svg" xml:space="preserve" width="1773px" height="1080px" version="1.0" shape-rendering="geometricPrecision" text-rendering="geometricPrecision" image-rendering="optimizeQuality" fill-rule="evenodd" clip-rule="evenodd"
viewBox="0 0 1771.26 1078.42"
 xmlns:xlink="http://www.w3.org/1999/xlink"
 xmlns:xodm="http://www.corel.com/coreldraw/odm/2003">
 <g id="Camada_x0020_1">
  <metadata id="CorelCorpID_0Corel-Layer"/>
  <path fill="black" fill-rule="nonzero" d="M1719.42 974.73l-1667.57 0c-28.64,0 -51.85,23.23 -51.85,51.85 0,28.65 23.21,51.84 51.85,51.84l1667.57 0c28.63,0 51.84,-23.19 51.84,-51.84 0,-28.62 -23.21,-51.85 -51.84,-51.85zm0 0z"/>
  <path fill="black" fill-rule="nonzero" d="M859.84 487.36l-833.78 0c-14.32,0 -25.93,23.24 -25.93,51.86 0,28.63 11.61,51.85 25.93,51.85l833.78 0c14.32,0 25.92,-23.22 25.92,-51.85 0,-28.62 -11.6,-51.86 -25.92,-51.86l0 0zm0 0z"/>
  <path fill="black" fill-rule="nonzero" d="M1719.42 0l-1667.57 0c-28.64,0 -51.85,23.23 -51.85,51.85 0,28.63 23.21,51.84 51.85,51.84l1667.57 0c28.63,0 51.84,-23.21 51.84,-51.84 0,-28.62 -23.21,-51.85 -51.84,-51.85zm0 0z"/>
 </g>
</svg>
